<svg width="24" height="24" viewBox="0 0 24 24" fill="none" xmlns="http://www.w3.org/2000/svg">
<path d="M10.8 2.40002C10.4817 2.40002 10.1765 2.52645 9.95145 2.7515C9.7264 2.97654 9.59998 3.28176 9.59998 3.60002C9.59998 3.91828 9.7264 4.22351 9.95145 4.44855C10.1765 4.6736 10.4817 4.80002 10.8 4.80002H13.2C13.5182 4.80002 13.8235 4.6736 14.0485 4.44855C14.2735 4.22351 14.4 3.91828 14.4 3.60002C14.4 3.28176 14.2735 2.97654 14.0485 2.7515C13.8235 2.52645 13.5182 2.40002 13.2 2.40002H10.8Z" fill="white"/>
<path fill-rule="evenodd" clip-rule="evenodd" d="M4.79999 5.99998C4.79999 5.36346 5.05284 4.75301 5.50293 4.30292C5.95302 3.85283 6.56347 3.59998 7.19999 3.59998C7.19999 4.55475 7.57927 5.47043 8.2544 6.14556C8.92953 6.82069 9.84521 7.19998 10.8 7.19998H13.2C14.1548 7.19998 15.0704 6.82069 15.7456 6.14556C16.4207 5.47043 16.8 4.55475 16.8 3.59998C17.4365 3.59998 18.047 3.85283 18.497 4.30292C18.9471 4.75301 19.2 5.36346 19.2 5.99998V19.2C19.2 19.8365 18.9471 20.4469 18.497 20.897C18.047 21.3471 17.4365 21.6 16.8 21.6H7.19999C6.56347 21.6 5.95302 21.3471 5.50293 20.897C5.05284 20.4469 4.79999 19.8365 4.79999 19.2V5.99998ZM16.4484 12.8484C16.667 12.6221 16.7879 12.3189 16.7852 12.0043C16.7825 11.6897 16.6563 11.3887 16.4338 11.1662C16.2113 10.9437 15.9103 10.8175 15.5957 10.8148C15.281 10.812 14.9779 10.933 14.7516 11.1516L10.8 15.1032L9.24839 13.5516C9.02207 13.333 8.71894 13.212 8.40431 13.2148C8.08967 13.2175 7.7887 13.3437 7.56621 13.5662C7.34372 13.7887 7.21751 14.0897 7.21478 14.4043C7.21204 14.7189 7.333 15.0221 7.55159 15.2484L9.95159 17.6484C10.1766 17.8733 10.4818 17.9997 10.8 17.9997C11.1182 17.9997 11.4234 17.8733 11.6484 17.6484L16.4484 12.8484Z" fill="white"/>
</svg>
