<svg width="24" height="24" viewBox="0 0 24 24" fill="none" xmlns="http://www.w3.org/2000/svg">
<path fill-rule="evenodd" clip-rule="evenodd" d="M4.79998 2.40002C5.11824 2.40002 5.42346 2.52645 5.6485 2.7515C5.87355 2.97654 5.99998 3.28176 5.99998 3.60002V6.12122C6.99842 5.10275 8.23969 4.35519 9.60687 3.94896C10.974 3.54274 12.4221 3.49121 13.8147 3.79923C15.2073 4.10725 16.4986 4.76469 17.5669 5.70962C18.6352 6.65455 19.4454 7.85587 19.9212 9.20042C19.9789 9.35013 20.006 9.5099 20.0009 9.67027C19.9958 9.83064 19.9586 9.98836 19.8915 10.1341C19.8244 10.2798 19.7287 10.4106 19.6101 10.5188C19.4916 10.6269 19.3526 10.7101 19.2013 10.7636C19.05 10.817 18.8895 10.8396 18.7294 10.83C18.5692 10.8203 18.4126 10.7786 18.2688 10.7074C18.125 10.6362 17.997 10.5368 17.8923 10.4153C17.7876 10.2937 17.7083 10.1524 17.6592 9.99962C17.2969 8.9758 16.6637 8.06944 15.827 7.37712C14.9903 6.68479 13.9814 6.23245 12.9078 6.06828C11.8343 5.90412 10.7364 6.03429 9.73097 6.44491C8.72558 6.85554 7.85043 7.53125 7.19878 8.40002H10.8C11.1182 8.40002 11.4235 8.52645 11.6485 8.7515C11.8735 8.97654 12 9.28176 12 9.60002C12 9.91828 11.8735 10.2235 11.6485 10.4486C11.4235 10.6736 11.1182 10.8 10.8 10.8H4.79998C4.48172 10.8 4.17649 10.6736 3.95145 10.4486C3.7264 10.2235 3.59998 9.91828 3.59998 9.60002V3.60002C3.59998 3.28176 3.7264 2.97654 3.95145 2.7515C4.17649 2.52645 4.48172 2.40002 4.79998 2.40002ZM4.80958 13.2684C4.95818 13.2159 5.11567 13.1932 5.27304 13.2016C5.43042 13.21 5.5846 13.2493 5.72679 13.3173C5.86898 13.3852 5.99639 13.4806 6.10173 13.5978C6.20708 13.715 6.28831 13.8518 6.34078 14.0004C6.70301 15.0242 7.33623 15.9306 8.17296 16.6229C9.00968 17.3153 10.0186 17.7676 11.0921 17.9318C12.1656 18.0959 13.2636 17.9658 14.269 17.5551C15.2744 17.1445 16.1495 16.4688 16.8012 15.6H13.2C12.8817 15.6 12.5765 15.4736 12.3514 15.2486C12.1264 15.0235 12 14.7183 12 14.4C12 14.0818 12.1264 13.7765 12.3514 13.5515C12.5765 13.3265 12.8817 13.2 13.2 13.2H19.2C19.5182 13.2 19.8235 13.3265 20.0485 13.5515C20.2735 13.7765 20.4 14.0818 20.4 14.4V20.4C20.4 20.7183 20.2735 21.0235 20.0485 21.2486C19.8235 21.4736 19.5182 21.6 19.2 21.6C18.8817 21.6 18.5765 21.4736 18.3514 21.2486C18.1264 21.0235 18 20.7183 18 20.4V17.8788C17.0015 18.8973 15.7603 19.6449 14.3931 20.0511C13.0259 20.4573 11.5778 20.5088 10.1852 20.2008C8.79265 19.8928 7.50138 19.2354 6.43307 18.2904C5.36475 17.3455 4.55455 16.1442 4.07878 14.7996C4.02629 14.651 4.00359 14.4935 4.01197 14.3362C4.02035 14.1788 4.05965 14.0246 4.12762 13.8824C4.1956 13.7402 4.29091 13.6128 4.40813 13.5075C4.52535 13.4021 4.66216 13.3209 4.81078 13.2684H4.80958Z" fill="white"/>
</svg>
